<?xml version="1.0"?>
<svg width="24" height="24" xmlns="http://www.w3.org/2000/svg" xmlns:svg="http://www.w3.org/2000/svg">
 <g class="layer">
  <title>Layer 1</title>
  <path d="m17.02,5.7l-2.04,1.57l0.74,2.47l-2.12,-1.46l-2.12,1.46l0.74,-2.47l-2.04,-1.57l2.58,-0.07l0.86,-2.42l0.86,2.42l2.58,0.07m2.83,5.58l-1.32,1.01l0.48,1.6l-1.37,-0.95l-1.37,0.95l0.48,-1.6l-1.32,-1.01l1.66,-0.04l0.56,-1.58l0.56,1.58l1.66,0.04m-1.84,4c0.67,-0.06 1.39,0.89 0.96,1.49c-0.26,0.36 -0.53,0.7 -0.87,1.03c-3.16,3.17 -8.27,3.17 -11.42,0c-3.16,-3.15 -3.16,-8.27 0,-11.42c0.32,-0.32 0.66,-0.61 1.03,-0.87c0.61,-0.43 1.56,0.29 1.49,0.96c-0.22,2.31 0.56,4.71 2.33,6.48c1.77,1.78 4.16,2.55 6.48,2.33m-1.32,1.63c-2.29,-0.13 -4.55,-1.07 -6.3,-2.8c-1.75,-1.77 -2.69,-4.04 -2.82,-6.32c-2.27,2.54 -2.18,6.43 0.25,8.87c2.44,2.43 6.33,2.52 8.87,0.25z" id="svg_1"/>
 </g>
</svg>