<?xml version="1.0"?>
<svg width="24" height="24" xmlns="http://www.w3.org/2000/svg" xmlns:svg="http://www.w3.org/2000/svg">
 <g class="layer">
  <title>Layer 1</title>
  <path d="m5.25,17.41l1.08,1.08l1.37,-1.37l-1.08,-1.08m5.09,-8.62c-2.53,0 -4.58,2.05 -4.58,4.58s2.05,4.58 4.58,4.58s4.58,-2.05 4.58,-4.58c0,-2.54 -2.05,-4.58 -4.58,-4.58m6.11,5.35l2.29,0l0,-1.53l-2.29,0m-2.11,5.89l1.37,1.37l1.08,-1.08l-1.37,-1.37m1.37,-9.39l-1.08,-1.07l-1.37,1.37l1.08,1.08m-4.32,-4.44l-1.53,0l0,2.29l1.53,0m-4.77,1.06l-1.37,-1.37l-1.08,1.07l1.37,1.38l1.08,-1.08m-4.4,5.81l2.29,0l0,-1.53l-2.29,0m9.16,6.87l-1.53,0l0,2.29l1.53,0" id="svg_1"/>
 </g>
</svg>